<svg xmlns="http://www.w3.org/2000/svg" viewBox="0 0 387.88 180.54"><defs><style>.cls-1{fill:#fff;}</style></defs><g id="Calque_2" data-name="Calque 2"><g id="Calque_1-2" data-name="Calque 1"><path class="cls-1" d="M193.69,180.5q-88.41,0-176.8,0c-5.65,0-10.76-1-14.07-6a23.85,23.85,0,0,1-2.51-6.27,12.87,12.87,0,0,1-.13-3.63C.18,115.09.4,65.54,0,16-.09,5,7.93,0,16.19,0q177.69.09,355.4.06a32.67,32.67,0,0,1,5.14.38C383.21,1.5,387.3,6,387.82,12.57c.06.8.06,1.61.06,2.42q0,75.39,0,150.78a21.32,21.32,0,0,1-.34,4.52c-1.34,6.18-6.25,9.8-13.71,10.19-1.11.06-2.23,0-3.34,0Zm-.11-5.89q89.14,0,178.28,0c6.53,0,10.39-2.55,10.36-10.08q-.29-74.16,0-148.33c0-7.39-3.5-10.36-10.47-10.36Q194,5.93,16.37,5.89c-7.37,0-9.8,2.42-9.81,9.84q0,74.46,0,148.93c0,7.71,2.28,10,10,10Z"/><path class="cls-1" d="M193.69,130.3h95.94c4.22,0,4.43.2,4.43,4.47,0,4.75,0,9.5,0,14.25,0,3.6-.35,3.94-4,3.95H99c-5.27,0-5.27,0-5.27-5.38,0-4.45,0-8.89,0-13.34,0-3.74.21-3.95,4-3.95q32.49,0,65,0Z"/><path class="cls-1" d="M333.06,118.72c-8,0-16-.09-23.95,0-2.69,0-3.58-1-3.53-3.54.1-5.35.08-10.7,0-16,0-2.18.88-3.14,3.05-3.13q24.71,0,49.43,0c2.15,0,3.08.9,3.05,3.11-.08,5.35-.12,10.7,0,16,.07,2.61-.84,3.6-3.5,3.56C349.44,118.65,341.25,118.72,333.06,118.72Z"/><path class="cls-1" d="M332.91,153c-7.89,0-15.77-.08-23.65,0-2.78.05-3.76-1-3.69-3.72.14-5.25.09-10.5,0-15.75,0-2.27.81-3.28,3.19-3.27q24.41.07,48.81,0c2.24,0,3.06.95,3,3.1-.06,5.45-.1,10.9,0,16.35.07,2.61-1.13,3.29-3.48,3.28C349.08,152.93,341,153,332.91,153Z"/><path class="cls-1" d="M54.69,118.72c-7.79,0-15.58-.12-23.36.06-3,.06-3.9-1-3.81-3.9.17-5.14.15-10.3,0-15.45-.07-2.54,1-3.4,3.39-3.4q24,.06,47.94,0c2.32,0,3.26,1,3.24,3.29-.06,5.36-.08,10.71,0,16.06,0,2.46-1,3.4-3.45,3.37C70.67,118.66,62.68,118.72,54.69,118.72Z"/><path class="cls-1" d="M54.58,153c-7.79,0-15.58-.07-23.36,0-2.75,0-3.78-.92-3.7-3.71.17-5.24.12-10.5,0-15.75,0-2.32.84-3.28,3.19-3.27q24.12.06,48.24,0c2.48,0,3.13,1.24,3.12,3.4,0,5.25-.09,10.5,0,15.75.06,2.61-1,3.61-3.56,3.58C70.56,152.91,62.57,153,54.58,153Z"/><path class="cls-1" d="M46.71,61.76c5.35,0,10.71.07,16.06,0,2.5,0,3.47,1,3.45,3.4,0,5.34-.07,10.69,0,16,0,2.46-1,3.43-3.46,3.41q-15.92-.07-31.83,0c-2.42,0-3.46-.89-3.41-3.4.12-5.45.09-10.9,0-16.35,0-2.23,1-3.09,3.09-3.08C36,61.78,41.35,61.76,46.71,61.76Z"/><path class="cls-1" d="M343.17,61.76c4.85,0,9.7.07,14.54,0,2.47,0,3.46.91,3.41,3.39q-.14,8.16,0,16.34c0,2.23-.94,3.11-3.06,3.1q-14.85,0-29.7,0c-2.11,0-3.14-.84-3.11-3.08q.11-8.31,0-16.64c0-2.22.93-3.11,3.08-3.09C333.27,61.78,338.22,61.76,343.17,61.76Z"/><path class="cls-1" d="M125.67,61.78c2.93,0,5.86,0,8.79,0a2.45,2.45,0,0,1,2.79,2.78c0,5.75,0,11.5,0,17.25a2.34,2.34,0,0,1-2.59,2.65c-6.16.06-12.32.14-18.48,0-1.85,0-3-1.12-3-3.34.12-5.25.13-10.5,0-15.74-.06-2.7,1.34-3.57,3.66-3.61,2.93-.05,5.86,0,8.79,0Z"/><path class="cls-1" d="M301.89,61.76c2.73,0,5.46,0,8.19,0,2.36,0,3.7,1,3.64,3.64-.12,5.14-.15,10.29,0,15.43.07,2.47-1.06,3.63-3.26,3.67-6,.1-11.92,0-17.88,0-1.93,0-2.93-.94-2.91-3,.05-5.55.06-11.1,0-16.65,0-2.23,1.07-3.09,3.13-3.09h9.09Z"/><path class="cls-1" d="M195.87,84.54c-2.84,0-5.67,0-8.5,0-2.16,0-3.09-1-3.06-3.14.07-5.55.06-11.11,0-16.67,0-2,.85-3,2.87-3,5.87,0,11.74,0,17.61,0,2.11,0,2.91,1,2.91,3,0,5.65,0,11.31,0,17,0,2.06-1.07,2.88-3,2.86C201.73,84.52,198.8,84.54,195.87,84.54Z"/><path class="cls-1" d="M266.38,84.54c-2.83,0-5.66,0-8.49,0-2.13,0-3.14-.85-3.11-3.08q.1-8.34,0-16.67c0-2.25,1-3.07,3.12-3,5.77,0,11.53,0,17.3,0,2.09,0,3,1,3,2.92,0,5.66,0,11.31,0,17,0,2-1,2.94-3,2.92C272.25,84.52,269.32,84.54,266.38,84.54Z"/><path class="cls-1" d="M230.92,84.54c-2.83,0-5.67,0-8.5,0-2.13,0-3.19-.84-3.18-3,0-5.55,0-11.11,0-16.66,0-2.15.9-3.14,3.09-3.12,5.76,0,11.53,0,17.29,0,2,0,3,.81,3,2.88,0,5.65-.05,11.31,0,17,0,2.09-.94,3-2.91,3Z"/><path class="cls-1" d="M90.15,61.76c2.83,0,5.67,0,8.5,0,2,0,3,.72,3,2.82,0,5.75,0,11.51,0,17.27,0,2-1,2.7-2.83,2.71-5.87,0-11.73,0-17.6,0-2,0-2.91-1-2.9-3q0-8.47,0-17c0-2.07,1-2.89,3-2.86C84.29,61.79,87.22,61.76,90.15,61.76Z"/><path class="cls-1" d="M140.68,118.72c-2.94,0-5.87,0-8.8,0-1.94,0-2.78-.87-2.78-2.73,0-5.76,0-11.51,0-17.27a2.31,2.31,0,0,1,2.58-2.64c6.07,0,12.14,0,18.2,0,1.95,0,2.67,1.12,2.66,2.91v17c0,2-1,2.85-3.06,2.79C146.54,118.66,143.61,118.72,140.68,118.72Z"/><path class="cls-1" d="M211.24,118.72c-2.83,0-5.67-.09-8.5,0-2.4.1-3.23-1-3.2-3.26q.09-8.17,0-16.36c0-2,.76-3.06,2.8-3.06h17.89c1.9,0,2.76,1,2.76,2.82v17c0,2-.87,3-3,2.89C217.1,118.66,214.17,118.72,211.24,118.72Z"/><path class="cls-1" d="M172.14,73c0,2.83-.07,5.66,0,8.48.07,2-.74,3.07-2.79,3.07h-17.9a2.34,2.34,0,0,1-2.64-2.6c0-5.85,0-11.71,0-17.57a2.33,2.33,0,0,1,2.63-2.6c6.06,0,12.14-.1,18.19.13.86,0,2.26,1.63,2.37,2.63A72.42,72.42,0,0,1,172.14,73Z"/><path class="cls-1" d="M282.14,118.72c-2.73,0-5.46-.09-8.18,0-2.28.09-3.38-.72-3.35-3.12.07-5.55.05-11.1,0-16.66,0-1.87.76-2.88,2.65-2.88,6.06,0,12.13,0,18.2,0A2.33,2.33,0,0,1,294,98.74q0,8.63,0,17.26c0,1.84-.87,2.77-2.81,2.73C288.21,118.67,285.18,118.72,282.14,118.72Z"/><path class="cls-1" d="M141.62,50.2c-2.83,0-5.66-.05-8.48,0-2,.05-3-.72-3-2.82q.09-8.48,0-16.95c0-1.86.65-2.88,2.59-2.88h18.18c1.81,0,2.5,1,2.5,2.67,0,5.75,0,11.5,0,17.25,0,1.9-.81,2.76-2.74,2.72C147.68,50.16,144.65,50.2,141.62,50.2Z"/><path class="cls-1" d="M176.1,50.2c-2.82,0-5.65-.05-8.48,0-1.87,0-2.83-.68-2.82-2.64,0-5.85-.09-11.7.11-17.55a3.35,3.35,0,0,1,2.29-2.34c6.15-.2,12.32-.2,18.47,0a3.36,3.36,0,0,1,2.26,2.37c.2,5.85.09,11.7.12,17.55,0,2-1,2.64-2.85,2.6C182.17,50.16,179.13,50.2,176.1,50.2Z"/><path class="cls-1" d="M210.25,50.2c-2.83,0-5.66-.06-8.48,0-2,.06-3-.68-3-2.79.05-5.75,0-11.5,0-17.25,0-1.78.82-2.6,2.55-2.6h18.18c1.79,0,2.53.9,2.52,2.64,0,5.75,0,11.5,0,17.25,0,2.15-1.06,2.8-3,2.76C216.11,50.15,213.18,50.2,210.25,50.2Z"/><path class="cls-1" d="M244.88,50.2c-2.83,0-5.66-.06-8.49,0-2,.06-3-.65-3-2.77,0-5.75,0-11.5,0-17.25,0-1.76.79-2.62,2.54-2.62h18.18c1.77,0,2.55.87,2.54,2.62,0,5.75,0,11.5,0,17.25,0,2.15-1,2.82-3,2.78C250.74,50.15,247.81,50.2,244.88,50.2Z"/><path class="cls-1" d="M278.88,50.18c-2.93,0-5.86,0-8.78,0-1.91,0-2.73-.85-2.72-2.75,0-5.75-.08-11.5.12-17.24a3.36,3.36,0,0,1,2.16-2.42q9.38-.33,18.76-.08a3.1,3.1,0,0,1,2.11,2.2c.19,6,.1,11.9.12,17.84,0,1.83-1,2.48-2.69,2.47-3,0-6,0-9.08,0Z"/><path class="cls-1" d="M313.37,50.2c-2.82,0-5.65-.05-8.48,0-1.85.05-2.9-.61-2.9-2.57,0-5.85-.1-11.7.1-17.55a3.39,3.39,0,0,1,2.25-2.4c6.16-.2,12.32-.12,18.48-.12,1.82,0,2.45,1,2.45,2.72q0,8.62,0,17.25c0,2-.94,2.69-2.81,2.66C319.44,50.16,316.4,50.2,313.37,50.2Z"/><path class="cls-1" d="M348.09,50.2c-2.83,0-5.66-.07-8.49,0-2,.07-3-.68-3-2.76,0-5.75,0-11.5,0-17.25,0-1.95,1-2.66,2.86-2.65,5.86,0,11.72,0,17.58,0,2,0,2.9.88,2.88,2.93-.06,5.55-.07,11.1,0,16.64,0,2.18-.8,3.16-3,3.09C354,50.14,351,50.2,348.09,50.2Z"/><path class="cls-1" d="M107.63,50.2c-2.83,0-5.66-.05-8.49,0-2,.05-3-.71-3-2.82q.09-8.48,0-16.95c0-1.86.66-2.88,2.6-2.87H117c1.81,0,2.5,1,2.5,2.67,0,5.75,0,11.5,0,17.25,0,1.89-.82,2.76-2.74,2.72C113.69,50.16,110.66,50.2,107.63,50.2Z"/><path class="cls-1" d="M105.85,118.72c-2.82,0-5.66-.09-8.48,0-2.17.08-3.16-.73-3.14-3,.06-5.65,0-11.3,0-17,0-1.92.88-2.77,2.73-2.77h17.88c1.9,0,2.69.93,2.67,2.82,0,5.65,0,11.3,0,17,0,2-.81,3-2.89,2.9C111.71,118.66,108.78,118.72,105.85,118.72Z"/><path class="cls-1" d="M176.08,118.72c-2.82,0-5.65-.06-8.48,0-1.86.05-2.89-.61-2.88-2.57,0-5.86-.1-11.71.1-17.55a3.4,3.4,0,0,1,2.25-2.42c6.15-.2,12.31-.13,18.47-.11,1.79,0,2.45,1,2.44,2.73q0,8.63,0,17.25c0,2-.93,2.69-2.81,2.66C182.15,118.68,179.11,118.72,176.08,118.72Z"/><path class="cls-1" d="M246.8,118.72c-2.93,0-5.86-.06-8.79,0-1.89.05-2.84-.7-2.84-2.63,0-5.85-.09-11.7.11-17.54a3.35,3.35,0,0,1,2.3-2.37c6.15-.21,12.32-.21,18.47,0a3.38,3.38,0,0,1,2.27,2.38c.21,5.85.09,11.7.12,17.55,0,2-1,2.64-2.86,2.61C252.65,118.68,249.72,118.72,246.8,118.72Z"/><path class="cls-1" d="M73.17,50.2c-2.83,0-5.66-.07-8.49,0-2.16.07-3.15-.73-3.12-3q.11-8.33,0-16.64c0-2,.68-3.05,2.77-3q8.94,0,17.88,0c2,0,2.68,1,2.67,2.84,0,5.65,0,11.3,0,17,0,2-.85,2.93-2.93,2.87C79,50.14,76.1,50.2,73.17,50.2Z"/><path class="cls-1" d="M39.19,50.2c-2.83,0-5.66-.07-8.49,0-2.14.07-3.18-.7-3.15-3,.07-5.65.06-11.3,0-16.95,0-2,.91-2.74,2.76-2.74,6,0,11.92,0,17.88,0,1.72,0,2.67.76,2.68,2.52q0,8.78,0,17.55c0,1.94-1.05,2.63-2.9,2.59C45.05,50.15,42.12,50.2,39.19,50.2Z"/></g></g></svg>