<?xml version="1.0" standalone="no"?>
<!DOCTYPE svg PUBLIC "-//W3C//DTD SVG 20010904//EN"
 "http://www.w3.org/TR/2001/REC-SVG-20010904/DTD/svg10.dtd">
<svg version="1.0" xmlns="http://www.w3.org/2000/svg"
 width="656.000000pt" height="656.000000pt" viewBox="0 0 656.000000 656.000000"
 preserveAspectRatio="xMidYMid meet">
<metadata>
Created by potrace 1.11, written by Peter Selinger 2001-2013
</metadata>
<g transform="translate(0.000000,656.000000) scale(0.100000,-0.100000)"
fill="#000000" stroke="none">
<path d="M1342 6164 c-71 -71 -151 -155 -178 -187 -27 -33 -54 -64 -59 -70 -6
-7 -26 -32 -45 -57 -19 -25 -37 -47 -40 -50 -3 -3 -9 -12 -15 -22 -5 -9 -29
-44 -53 -78 -23 -33 -60 -89 -81 -123 -62 -101 -191 -362 -191 -386 0 -4 -7
-21 -15 -37 -13 -26 -80 -248 -91 -299 -50 -243 -59 -333 -59 -575 1 -166 10
-354 20 -369 1 -3 6 -30 10 -60 4 -30 9 -63 11 -75 3 -12 9 -44 14 -72 5 -28
25 -114 45 -190 20 -77 38 -146 40 -154 2 -8 4 -15 4 -15 1 0 100 -282 108
-309 13 -41 -180 196 -247 304 -37 61 -126 233 -152 295 -15 36 -64 181 -88
260 -13 41 -41 172 -46 215 -2 19 -6 44 -8 55 -5 19 -8 43 -22 180 -3 33 -7
110 -7 172 -1 61 -5 109 -9 107 -3 -2 -16 -35 -28 -72 -12 -37 -24 -74 -27
-82 -4 -8 -7 -17 -8 -20 -1 -3 -4 -12 -8 -20 -10 -25 -34 -121 -51 -200 -32
-147 -33 -151 -53 -285 -5 -27 -8 -156 -8 -285 1 -212 4 -278 20 -390 3 -19 8
-51 11 -70 2 -19 7 -51 9 -70 4 -28 31 -150 70 -317 14 -60 97 -281 162 -433
8 -19 19 -45 24 -57 5 -13 13 -33 19 -45 5 -13 18 -46 29 -74 18 -48 19 -51 1
-62 -15 -9 -23 -4 -51 31 -19 23 -39 49 -46 57 -68 83 -123 156 -123 163 0 4
-20 -6 -45 -23 l-46 -32 24 -41 c21 -36 111 -207 199 -377 13 -25 26 -46 31
-48 4 -2 7 -8 7 -14 0 -22 195 -318 229 -348 3 -3 31 -34 61 -70 125 -149 360
-365 540 -497 79 -57 190 -133 196 -133 3 0 25 -13 49 -30 24 -16 47 -30 50
-30 4 0 20 -9 35 -20 107 -76 537 -262 742 -321 54 -15 102 -30 107 -33 5 -4
22 -8 38 -11 15 -2 46 -9 68 -15 42 -11 61 -15 110 -24 17 -3 41 -8 55 -11 44
-9 134 -24 185 -31 51 -7 64 -8 175 -21 91 -10 539 -10 630 0 41 5 93 10 115
13 22 2 55 6 73 9 17 3 46 7 63 9 17 3 42 7 57 11 15 3 41 7 57 9 66 9 385 92
435 113 8 3 17 7 20 8 23 6 58 18 75 25 11 4 49 18 85 31 144 50 567 257 607
297 7 7 13 11 13 8 0 -3 42 22 93 56 50 33 117 77 147 97 30 20 60 39 65 43 6
4 64 47 130 95 66 49 127 95 135 103 9 8 36 31 60 50 76 60 238 229 301 314
75 100 119 178 158 277 45 114 54 159 65 306 6 87 16 185 21 203 2 8 7 30 10
48 17 106 37 191 90 387 15 55 31 116 35 135 5 19 11 46 15 60 12 50 24 106
31 150 3 19 7 40 9 47 24 72 25 483 1 521 -2 4 -7 34 -10 66 -4 32 -8 62 -10
65 -2 3 -7 37 -11 75 -3 38 -8 72 -9 75 -2 3 -6 29 -10 56 -3 28 -8 61 -10 75
-3 14 -10 59 -16 100 -6 41 -13 86 -16 100 -5 33 -15 104 -23 164 -6 46 -7 48
-18 25 -13 -27 -92 -235 -98 -259 -2 -8 -49 -136 -105 -285 -55 -148 -102
-274 -104 -280 -2 -5 -5 -17 -8 -25 -3 -8 -13 -35 -21 -60 -9 -25 -22 -58 -28
-75 -7 -16 -13 -34 -15 -40 -1 -5 -19 -53 -39 -105 -20 -52 -40 -108 -46 -125
-5 -16 -13 -39 -18 -50 -5 -11 -21 -54 -36 -95 -14 -41 -33 -90 -41 -108 -8
-18 -14 -39 -14 -47 0 -24 -17 -26 -65 -5 -45 19 -46 21 -40 56 3 20 7 39 9
43 2 3 20 87 41 186 20 99 39 189 41 200 2 11 6 34 9 50 3 17 7 41 10 55 6 34
13 77 20 125 3 22 8 51 10 65 3 14 7 45 10 70 3 25 10 79 15 120 42 340 44
793 4 1002 -3 15 -7 39 -9 55 -2 15 -7 39 -10 53 -3 14 -8 39 -11 55 -3 17 -9
48 -15 70 -5 22 -12 49 -14 59 -12 53 -92 272 -115 314 -41 78 -115 208 -120
212 -4 3 -9 12 -12 20 -10 26 -140 182 -208 250 -107 106 -183 167 -300 245
-25 17 -48 34 -52 40 -14 19 -8 -3 36 -128 49 -138 107 -328 111 -367 2 -14 8
-50 14 -80 21 -100 23 -124 24 -230 0 -124 -13 -223 -48 -360 -31 -123 -152
-396 -269 -610 -98 -180 -103 -188 -126 -225 -11 -16 -23 -37 -27 -45 -15 -31
-216 -366 -228 -378 -10 -11 -4 -33 35 -115 44 -94 99 -227 105 -252 2 -9 6
-21 23 -65 36 -96 100 -371 116 -500 3 -25 8 -56 11 -70 8 -38 16 -222 15
-335 -2 -165 -11 -274 -35 -412 -2 -16 -7 -44 -10 -63 -17 -96 -72 -290 -114
-395 -10 -27 -25 -66 -33 -85 -7 -19 -16 -37 -19 -40 -4 -3 -10 -15 -14 -28
-12 -39 -154 -283 -175 -302 -3 -3 -17 -21 -30 -40 -54 -79 -285 -313 -328
-332 -4 -2 -46 -29 -94 -61 -47 -31 -91 -57 -96 -57 -6 0 -12 -3 -14 -7 -3 -7
-65 -37 -158 -76 -36 -15 -107 -39 -125 -43 -5 -1 -39 -9 -74 -19 -35 -9 -69
-14 -75 -12 -12 5 -14 21 -21 177 -5 106 -17 331 -20 380 -1 25 -6 104 -10
175 -8 151 -12 228 -19 343 -3 50 -1 82 5 82 5 0 12 -7 15 -15 4 -8 12 -15 20
-15 8 0 14 -3 14 -7 0 -5 28 -30 63 -58 34 -27 70 -56 79 -65 9 -8 23 -20 30
-25 7 -6 52 -43 101 -83 48 -40 87 -71 87 -69 0 5 -20 54 -47 117 -24 57 -30
70 -73 175 -45 108 -64 154 -86 199 -19 39 -18 56 4 57 70 5 158 15 232 25 19
3 62 8 95 11 70 6 78 7 167 17 66 8 66 8 73 43 3 20 3 39 -2 43 -4 4 -53 14
-108 23 -55 9 -111 19 -125 22 -54 10 -76 14 -110 19 -19 3 -46 8 -60 11 -14
3 -60 10 -102 17 -46 7 -78 17 -78 24 0 10 57 176 77 224 3 8 7 20 8 26 2 6
20 57 40 113 21 55 35 104 32 107 -3 4 -19 -6 -35 -22 -16 -16 -50 -47 -76
-69 -27 -22 -64 -53 -84 -70 -19 -16 -48 -42 -63 -58 -15 -15 -30 -24 -32 -20
-3 5 -6 51 -7 103 -1 52 -4 127 -5 165 -2 39 -6 149 -9 245 -7 201 -12 318
-21 550 -4 91 -8 217 -11 280 -2 63 -6 178 -9 255 -3 77 -7 194 -9 260 -6 163
-16 416 -21 555 -3 63 -7 171 -10 240 -11 286 -16 421 -20 525 -3 61 -8 182
-11 270 -8 219 -12 347 -13 368 -1 10 -9 17 -21 17 -12 0 -20 -7 -21 -17 0
-10 -2 -54 -4 -98 -2 -44 -6 -152 -11 -240 -4 -88 -8 -204 -8 -257 -1 -54 -3
-98 -6 -98 -3 0 -5 -33 -6 -73 0 -39 -4 -142 -8 -227 -4 -85 -9 -193 -11 -240
-2 -47 -7 -141 -10 -210 -3 -69 -7 -172 -10 -230 -4 -108 -12 -296 -20 -455
-4 -82 -7 -158 -20 -480 -3 -60 -7 -159 -10 -220 -6 -126 -14 -305 -20 -450
-15 -345 -22 -511 -24 -528 -1 -7 -39 17 -85 55 -58 46 -170 128 -173 125 -2
-3 39 -165 52 -205 3 -7 5 -14 6 -17 0 -2 14 -48 30 -101 30 -100 34 -125 22
-122 -9 2 -156 -22 -218 -35 -11 -3 -40 -8 -65 -12 -25 -4 -54 -9 -65 -12 -11
-2 -31 -5 -45 -8 -151 -24 -165 -28 -168 -57 -4 -33 15 -44 88 -52 30 -3 66
-7 80 -10 14 -2 45 -7 70 -10 25 -4 62 -9 83 -12 20 -3 47 -7 60 -9 12 -1 45
-6 72 -10 28 -4 61 -9 74 -9 14 -1 26 -7 28 -13 4 -10 -25 -87 -63 -170 -8
-18 -21 -50 -28 -70 -8 -21 -35 -86 -60 -145 -43 -103 -44 -107 -20 -96 13 6
24 15 24 20 0 4 6 8 14 8 8 0 16 3 18 8 4 10 97 72 107 72 5 0 11 3 13 8 5 10
66 52 77 52 5 0 11 4 13 8 2 5 31 28 66 51 l63 43 -5 -79 c-3 -43 -6 -78 -6
-78 -2 0 -4 -26 -14 -145 -4 -41 -9 -97 -12 -125 -6 -62 -12 -130 -19 -215 -3
-36 -7 -90 -10 -120 -21 -228 -25 -266 -30 -333 -2 -33 -5 -60 -7 -62 -7 -7
-242 116 -336 177 -94 60 -229 161 -244 182 -4 6 -8 7 -8 3 0 -7 -245 236
-284 283 -91 106 -223 313 -293 460 -78 162 -159 396 -178 515 -2 11 -6 38 -9
60 -4 22 -9 51 -11 65 -15 85 -19 144 -19 300 0 96 3 198 7 225 11 83 16 118
24 160 4 22 8 45 8 50 2 22 29 124 47 180 11 33 21 67 23 75 5 25 75 191 113
265 136 271 118 398 -94 670 -8 11 -25 37 -36 58 -12 20 -25 37 -30 37 -4 0
-8 4 -8 10 0 5 -20 40 -43 77 -24 37 -55 88 -68 113 -13 25 -26 47 -29 50 -15
15 -114 231 -148 325 -97 261 -121 397 -117 655 2 168 7 237 20 280 2 8 7 31
10 50 18 108 123 404 149 422 6 4 7 10 4 13 -4 4 -65 -51 -136 -121z"/>
</g>
</svg>
