<?xml version="1.0" encoding="utf-8"?>
<!-- Generator: Adobe Illustrator 24.1.2, SVG Export Plug-In . SVG Version: 6.00 Build 0)  -->
<svg version="1.1" id="Layer_1" xmlns="http://www.w3.org/2000/svg" xmlns:xlink="http://www.w3.org/1999/xlink" x="0px" y="0px"
	 viewBox="0 0 512.1 512.1" style="enable-background:new 0 0 512.1 512.1;" xml:space="preserve">
<style type="text/css">
	.st0{fill:#FFFFFF;}
	.st1{fill:#3D4C53;}
</style>
<g>
	<g>
		<path class="st0" d="M256-0.1C114.3-0.1-0.1,114.2-0.1,256S114.2,512.2,256,512.2S512.2,397.9,512.2,256S397.6-0.1,256-0.1z
			 M256.1,256.1L256.1,256.1L256.1,256.1L256.1,256.1L256.1,256.1z"/>
	</g>
</g>
<g>
	<g>
		<path class="st1" d="M329.1,314.8L270.3,256l58.7-58.7c4-4.1,4-10.2,0-14.2s-10.2-4-14.2,0L256,241.8l-58.7-58.7
			c-4-4-10.2-4-14.2,0s-4,10.2,0,14.2l58.7,58.7l-58.7,58.7c-4,4-4,10.2,0,14.2c2,2,4,3,7.1,3c3,0,5.1-1,7.1-3l58.7-58.7l58.7,58.7
			c2,2,4,3,7.1,3c2,0,5.1-1,7.1-3C333,325,333,318.9,329.1,314.8z"/>
	</g>
</g>
</svg>
