<?xml version="1.0" encoding="utf-8"?>
<!-- Generator: Adobe Illustrator 24.1.2, SVG Export Plug-In . SVG Version: 6.00 Build 0)  -->
<svg version="1.1" id="Calque_1" xmlns="http://www.w3.org/2000/svg" xmlns:xlink="http://www.w3.org/1999/xlink" x="0px" y="0px"
	 viewBox="0 0 49 49" style="enable-background:new 0 0 49 49;" xml:space="preserve">
<style type="text/css">
	.st0{fill-rule:evenodd;clip-rule:evenodd;fill:#FFFFFF;}
	.st1{fill:none;stroke:#FFFFFF;stroke-width:3;stroke-linejoin:round;}
</style>
<g id="Group-5" transform="translate(40.000000, 33.000000)">
</g>
<g id="Group-7" transform="translate(593.000000, 465.000000)">
	<g id="Group-6">
		<g id="Group-4" transform="translate(280.000000, 33.000000)">
			<polygon class="st0" points="-836.1,-482.5 -836.1,-464.5 -847.4,-464.5 -847.4,-467.9 -854.1,-462.2 -847.4,-456.6 -847.4,-460 
				-836.1,-460 -831.6,-460 -831.6,-464.5 -831.6,-482.5 			"/>
			<path id="Rectangle_3_" class="st1" d="M-867-496h37c2.2,0,4,1.8,4,4v37c0,2.2-1.8,4-4,4h-37c-2.2,0-4-1.8-4-4v-37
				C-871-494.2-869.2-496-867-496z"/>
		</g>
	</g>
</g>
</svg>
