<?xml version="1.0" encoding="utf-8"?>
<!-- Generator: Adobe Illustrator 24.1.2, SVG Export Plug-In . SVG Version: 6.00 Build 0)  -->
<svg version="1.1" id="Calque_1" xmlns="http://www.w3.org/2000/svg" xmlns:xlink="http://www.w3.org/1999/xlink" x="0px" y="0px"
	 viewBox="0 0 387.9 180.5" style="enable-background:new 0 0 387.9 180.5;" xml:space="preserve">
<style type="text/css">
	.st0{fill:#FFFFFF;}
</style>
<g id="Calque_2_1_">
	<g id="Calque_1-2">
		<path class="st0" d="M193.7,180.5c-58.9,0-117.9,0-176.8,0c-5.6,0-10.8-1-14.1-6c-1.1-2-2-4.1-2.5-6.3c-0.2-1.2-0.3-2.4-0.1-3.6
			C0.2,115.1,0.4,65.5,0,16C-0.1,5,7.9,0,16.2,0c118.5,0.1,236.9,0.1,355.4,0.1c1.7,0,3.4,0.1,5.1,0.4c6.5,1.1,10.6,5.6,11.1,12.1
			c0.1,0.8,0.1,1.6,0.1,2.4c0,50.3,0,100.5,0,150.8c0,1.5-0.1,3-0.3,4.5c-1.3,6.2-6.2,9.8-13.7,10.2c-1.1,0.1-2.2,0-3.3,0
			L193.7,180.5z M193.6,174.6c59.4,0,118.9,0,178.3,0c6.5,0,10.4-2.6,10.4-10.1c-0.2-49.4-0.2-98.9,0-148.3
			c0-7.4-3.5-10.4-10.5-10.4c-118.5,0.1-237,0.1-355.4,0.1c-7.4,0-9.8,2.4-9.8,9.8c0,49.6,0,99.3,0,148.9c0,7.7,2.3,10,10,10
			L193.6,174.6z"/>
		<path class="st0" d="M193.7,130.3h95.9c4.2,0,4.4,0.2,4.4,4.5c0,4.8,0,9.5,0,14.2c0,3.6-0.4,3.9-4,3.9H99c-5.3,0-5.3,0-5.3-5.4
			c0-4.4,0-8.9,0-13.3c0-3.7,0.2-3.9,4-3.9c21.7,0,43.3,0,65,0H193.7z"/>
		<path class="st0" d="M333.1,118.7c-8,0-16-0.1-24,0c-2.7,0-3.6-1-3.5-3.5c0.1-5.3,0.1-10.7,0-16c0-2.2,0.9-3.1,3-3.1
			c16.5,0,32.9,0,49.4,0c2.1,0,3.1,0.9,3,3.1c-0.1,5.3-0.1,10.7,0,16c0.1,2.6-0.8,3.6-3.5,3.6C349.4,118.7,341.2,118.7,333.1,118.7z
			"/>
		<path class="st0" d="M332.9,153c-7.9,0-15.8-0.1-23.6,0c-2.8,0.1-3.8-1-3.7-3.7c0.1-5.2,0.1-10.5,0-15.8c0-2.3,0.8-3.3,3.2-3.3
			c16.3,0,32.5,0,48.8,0c2.2,0,3.1,0.9,3,3.1c-0.1,5.4-0.1,10.9,0,16.4c0.1,2.6-1.1,3.3-3.5,3.3C349.1,152.9,341,153,332.9,153z"/>
		<path class="st0" d="M54.7,118.7c-7.8,0-15.6-0.1-23.4,0.1c-3,0.1-3.9-1-3.8-3.9c0.2-5.1,0.1-10.3,0-15.4c-0.1-2.5,1-3.4,3.4-3.4
			c16,0,32,0,47.9,0c2.3,0,3.3,1,3.2,3.3c-0.1,5.4-0.1,10.7,0,16.1c0,2.5-1,3.4-3.4,3.4C70.7,118.7,62.7,118.7,54.7,118.7z"/>
		<path class="st0" d="M54.6,153c-7.8,0-15.6-0.1-23.4,0c-2.8,0-3.8-0.9-3.7-3.7c0.2-5.2,0.1-10.5,0-15.8c0-2.3,0.8-3.3,3.2-3.3
			c16.1,0,32.2,0,48.2,0c2.5,0,3.1,1.2,3.1,3.4c0,5.2-0.1,10.5,0,15.8c0.1,2.6-1,3.6-3.6,3.6C70.6,152.9,62.6,153,54.6,153z"/>
		<path class="st0" d="M46.7,61.8c5.3,0,10.7,0.1,16.1,0c2.5,0,3.5,1,3.4,3.4c0,5.3-0.1,10.7,0,16c0,2.5-1,3.4-3.5,3.4
			c-10.6,0-21.2,0-31.8,0c-2.4,0-3.5-0.9-3.4-3.4c0.1-5.4,0.1-10.9,0-16.3c0-2.2,1-3.1,3.1-3.1C36,61.8,41.3,61.8,46.7,61.8z"/>
		<path class="st0" d="M343.2,61.8c4.9,0,9.7,0.1,14.5,0c2.5,0,3.5,0.9,3.4,3.4c-0.1,5.4-0.1,10.9,0,16.3c0,2.2-0.9,3.1-3.1,3.1
			c-9.9,0-19.8,0-29.7,0c-2.1,0-3.1-0.8-3.1-3.1c0.1-5.5,0.1-11.1,0-16.6c0-2.2,0.9-3.1,3.1-3.1C333.3,61.8,338.2,61.8,343.2,61.8z"
			/>
		<path class="st0" d="M125.7,61.8c2.9,0,5.9,0,8.8,0c1.3-0.2,2.6,0.7,2.8,2.1c0,0.2,0,0.5,0,0.7c0,5.8,0,11.5,0,17.2
			c0.2,1.3-0.7,2.5-2,2.6c-0.2,0-0.4,0-0.6,0c-6.2,0.1-12.3,0.1-18.5,0c-1.8,0-3-1.1-3-3.3c0.1-5.2,0.1-10.5,0-15.7
			c-0.1-2.7,1.3-3.6,3.7-3.6C119.8,61.7,122.7,61.8,125.7,61.8L125.7,61.8z"/>
		<path class="st0" d="M301.9,61.8c2.7,0,5.5,0,8.2,0c2.4,0,3.7,1,3.6,3.6c-0.1,5.1-0.1,10.3,0,15.4c0.1,2.5-1.1,3.6-3.3,3.7
			c-6,0.1-11.9,0-17.9,0c-1.9,0-2.9-0.9-2.9-3c0-5.6,0.1-11.1,0-16.7c0-2.2,1.1-3.1,3.1-3.1H301.9z"/>
		<path class="st0" d="M195.9,84.5c-2.8,0-5.7,0-8.5,0c-2.2,0-3.1-1-3.1-3.1c0.1-5.6,0.1-11.1,0-16.7c0-2,0.9-3,2.9-3
			c5.9,0,11.7,0,17.6,0c2.1,0,2.9,1,2.9,3c0,5.7,0,11.3,0,17c0,2.1-1.1,2.9-3,2.9C201.7,84.5,198.8,84.5,195.9,84.5z"/>
		<path class="st0" d="M266.4,84.5c-2.8,0-5.7,0-8.5,0c-2.1,0-3.1-0.8-3.1-3.1c0.1-5.6,0.1-11.1,0-16.7c0-2.2,1-3.1,3.1-3
			c5.8,0,11.5,0,17.3,0c2.1,0,3,1,3,2.9c0,5.7,0,11.3,0,17c0,2-1,2.9-3,2.9C272.2,84.5,269.3,84.5,266.4,84.5z"/>
		<path class="st0" d="M230.9,84.5c-2.8,0-5.7,0-8.5,0c-2.1,0-3.2-0.8-3.2-3c0-5.6,0-11.1,0-16.7c0-2.2,0.9-3.1,3.1-3.1
			c5.8,0,11.5,0,17.3,0c2,0,3,0.8,3,2.9c0,5.7-0.1,11.3,0,17c0,2.1-0.9,3-2.9,3L230.9,84.5z"/>
		<path class="st0" d="M90.2,61.8c2.8,0,5.7,0,8.5,0c2,0,3,0.7,3,2.8c0,5.8,0,11.5,0,17.3c0,2-1,2.7-2.8,2.7c-5.9,0-11.7,0-17.6,0
			c-2,0-2.9-1-2.9-3c0-5.6,0-11.3,0-17c0-2.1,1-2.9,3-2.9C84.3,61.8,87.2,61.8,90.2,61.8z"/>
		<path class="st0" d="M140.7,118.7c-2.9,0-5.9,0-8.8,0c-1.9,0-2.8-0.9-2.8-2.7c0-5.8,0-11.5,0-17.3c-0.2-1.3,0.7-2.4,1.9-2.6
			c0.2,0,0.4,0,0.6,0c6.1,0,12.1,0,18.2,0c1.9,0,2.7,1.1,2.7,2.9v17c0,2-1,2.8-3.1,2.8C146.5,118.7,143.6,118.7,140.7,118.7z"/>
		<path class="st0" d="M211.2,118.7c-2.8,0-5.7-0.1-8.5,0c-2.4,0.1-3.2-1-3.2-3.3c0.1-5.4,0.1-10.9,0-16.4c0-2,0.8-3.1,2.8-3.1h17.9
			c1.9,0,2.8,1,2.8,2.8v17c0,2-0.9,3-3,2.9C217.1,118.7,214.2,118.7,211.2,118.7z"/>
		<path class="st0" d="M172.1,73c0,2.8-0.1,5.7,0,8.5c0.1,2-0.7,3.1-2.8,3.1h-17.9c-1.3,0.2-2.5-0.7-2.6-2c0-0.2,0-0.4,0-0.6
			c0-5.8,0-11.7,0-17.6c-0.2-1.3,0.7-2.4,2-2.6c0.2,0,0.4,0,0.6,0c6.1,0,12.1-0.1,18.2,0.1c0.9,0,2.3,1.6,2.4,2.6
			C172.2,67.4,172.3,70.2,172.1,73z"/>
		<path class="st0" d="M282.1,118.7c-2.7,0-5.5-0.1-8.2,0c-2.3,0.1-3.4-0.7-3.4-3.1c0.1-5.6,0-11.1,0-16.7c0-1.9,0.8-2.9,2.6-2.9
			c6.1,0,12.1,0,18.2,0c1.3-0.1,2.4,0.8,2.6,2.1c0,0.2,0,0.4,0,0.6c0,5.8,0,11.5,0,17.3c0,1.8-0.9,2.8-2.8,2.7
			C288.2,118.7,285.2,118.7,282.1,118.7z"/>
		<path class="st0" d="M141.6,50.2c-2.8,0-5.7,0-8.5,0c-2,0-3-0.7-3-2.8c0.1-5.7,0.1-11.3,0-17c0-1.9,0.6-2.9,2.6-2.9h18.2
			c1.8,0,2.5,1,2.5,2.7c0,5.8,0,11.5,0,17.3c0,1.9-0.8,2.8-2.7,2.7C147.7,50.2,144.6,50.2,141.6,50.2z"/>
		<path class="st0" d="M176.1,50.2c-2.8,0-5.6,0-8.5,0c-1.9,0-2.8-0.7-2.8-2.6c0-5.8-0.1-11.7,0.1-17.5c0.3-1.1,1.2-2,2.3-2.3
			c6.1-0.2,12.3-0.2,18.5,0c1.1,0.3,2,1.2,2.3,2.4c0.2,5.8,0.1,11.7,0.1,17.5c0,2-1,2.6-2.9,2.6C182.2,50.2,179.1,50.2,176.1,50.2z"
			/>
		<path class="st0" d="M210.2,50.2c-2.8,0-5.7-0.1-8.5,0c-2,0.1-3-0.7-3-2.8c0.1-5.8,0-11.5,0-17.2c0-1.8,0.8-2.6,2.6-2.6h18.2
			c1.8,0,2.5,0.9,2.5,2.6c0,5.7,0,11.5,0,17.2c0,2.2-1.1,2.8-3,2.8C216.1,50.2,213.2,50.2,210.2,50.2z"/>
		<path class="st0" d="M244.9,50.2c-2.8,0-5.7-0.1-8.5,0c-2,0.1-3-0.7-3-2.8c0-5.8,0-11.5,0-17.2c0-1.8,0.8-2.6,2.5-2.6h18.2
			c1.8,0,2.5,0.9,2.5,2.6c0,5.8,0,11.5,0,17.2c0,2.2-1,2.8-3,2.8C250.7,50.2,247.8,50.2,244.9,50.2z"/>
		<path class="st0" d="M278.9,50.2c-2.9,0-5.9,0-8.8,0c-1.9,0-2.7-0.8-2.7-2.8c0-5.8-0.1-11.5,0.1-17.2c0.3-1.1,1.1-2,2.2-2.4
			c6.3-0.2,12.5-0.2,18.8-0.1c1,0.3,1.8,1.1,2.1,2.2c0.2,6,0.1,11.9,0.1,17.8c0,1.8-1,2.5-2.7,2.5C285,50.2,282,50.2,278.9,50.2
			L278.9,50.2z"/>
		<path class="st0" d="M313.4,50.2c-2.8,0-5.6,0-8.5,0c-1.9,0-2.9-0.6-2.9-2.6c0-5.8-0.1-11.7,0.1-17.5c0.3-1.1,1.1-2,2.2-2.4
			c6.2-0.2,12.3-0.1,18.5-0.1c1.8,0,2.5,1,2.5,2.7c0,5.7,0,11.5,0,17.2c0,2-0.9,2.7-2.8,2.7C319.4,50.2,316.4,50.2,313.4,50.2z"/>
		<path class="st0" d="M348.1,50.2c-2.8,0-5.7-0.1-8.5,0c-2,0.1-3-0.7-3-2.8c0-5.8,0-11.5,0-17.2c0-2,1-2.7,2.9-2.6
			c5.9,0,11.7,0,17.6,0c2,0,2.9,0.9,2.9,2.9c-0.1,5.6-0.1,11.1,0,16.6c0,2.2-0.8,3.2-3,3.1C354,50.1,351,50.2,348.1,50.2z"/>
		<path class="st0" d="M107.6,50.2c-2.8,0-5.7,0-8.5,0c-2,0-3-0.7-3-2.8c0.1-5.7,0.1-11.3,0-17c0-1.9,0.7-2.9,2.6-2.9H117
			c1.8,0,2.5,1,2.5,2.7c0,5.8,0,11.5,0,17.3c0,1.9-0.8,2.8-2.7,2.7C113.7,50.2,110.7,50.2,107.6,50.2z"/>
		<path class="st0" d="M105.8,118.7c-2.8,0-5.7-0.1-8.5,0c-2.2,0.1-3.2-0.7-3.1-3c0.1-5.7,0-11.3,0-17c0-1.9,0.9-2.8,2.7-2.8h17.9
			c1.9,0,2.7,0.9,2.7,2.8c0,5.7,0,11.3,0,17c0,2-0.8,3-2.9,2.9C111.7,118.7,108.8,118.7,105.8,118.7z"/>
		<path class="st0" d="M176.1,118.7c-2.8,0-5.6-0.1-8.5,0c-1.9,0.1-2.9-0.6-2.9-2.6c0-5.9-0.1-11.7,0.1-17.5
			c0.3-1.1,1.1-2.1,2.2-2.4c6.1-0.2,12.3-0.1,18.5-0.1c1.8,0,2.4,1,2.4,2.7c0,5.8,0,11.5,0,17.2c0,2-0.9,2.7-2.8,2.7
			C182.1,118.7,179.1,118.7,176.1,118.7z"/>
		<path class="st0" d="M246.8,118.7c-2.9,0-5.9-0.1-8.8,0c-1.9,0.1-2.8-0.7-2.8-2.6c0-5.8-0.1-11.7,0.1-17.5c0.3-1.1,1.2-2,2.3-2.4
			c6.1-0.2,12.3-0.2,18.5,0c1.1,0.3,2,1.2,2.3,2.4c0.2,5.8,0.1,11.7,0.1,17.6c0,2-1,2.6-2.9,2.6
			C252.6,118.7,249.7,118.7,246.8,118.7z"/>
		<path class="st0" d="M73.2,50.2c-2.8,0-5.7-0.1-8.5,0c-2.2,0.1-3.2-0.7-3.1-3c0.1-5.6,0.1-11.1,0-16.6c0-2,0.7-3,2.8-3
			c6,0,11.9,0,17.9,0c2,0,2.7,1,2.7,2.8c0,5.7,0,11.3,0,17c0,2-0.8,2.9-2.9,2.9C79,50.1,76.1,50.2,73.2,50.2z"/>
		<path class="st0" d="M39.2,50.2c-2.8,0-5.7-0.1-8.5,0c-2.1,0.1-3.2-0.7-3.1-3c0.1-5.7,0.1-11.3,0-17c0-2,0.9-2.7,2.8-2.7
			c6,0,11.9,0,17.9,0c1.7,0,2.7,0.8,2.7,2.5c0,5.9,0,11.7,0,17.6c0,1.9-1,2.6-2.9,2.6C45,50.2,42.1,50.2,39.2,50.2z"/>
	</g>
</g>
</svg>
