<svg xmlns="http://www.w3.org/2000/svg" viewBox="0 0 433.69 364.61"><defs><style>.cls-1{fill:#fff;}</style></defs><g id="Calque_2" data-name="Calque 2"><g id="Calque_1-2" data-name="Calque 1"><path class="cls-1" d="M37,363.73C17,359.07,5.42,346.29,1,326.56c.12-1.74.25-3.48-.8-5a1.89,1.89,0,0,0-.09-1c0-2.68,0-5.35-.08-8V237.69l.12-13A53.38,53.38,0,0,1,14.27,193l0,0a16.78,16.78,0,0,0,5-4.21l-.08.08c2.9-1.47,5.68-3.37,8.75-4.28,3.81-1.12,4.93-3.31,4.34-6.89l.17-1.69.31-2.23c.68-2.66.43-5.35.3-8,2-11,3.69-22.14,6.92-32.91.48-4.77,2.41-9.06,4.43-13.32A233.58,233.58,0,0,1,60.77,86.72L65.15,80c1.82-2.21,4-4.14,4.85-7C81.73,60.15,92.45,46.3,107.34,36.75A9.69,9.69,0,0,0,109,35q6.09-4,12.2-7.93l2.85-1.7c9.77-5.18,19.6-10.24,30-14.12L166.91,7l17-4c5.11,0,10-1.3,15-2.08a72.23,72.23,0,0,0,16-.92l5,0,24,2,15,3,16,4.19L274.68,9c-.09.84.49.88,1.08.91a32,32,0,0,0,9,3.18l3.92,1.57,14.53,7.13a318,318,0,0,1,29.32,19.3l3.2,2.88L350,57.27c-.24.59.18.61.56.67,12.06,13.81,23,28.4,31.2,44.92l6.11,13L392.37,128l.45,1.84q2.43,9,4.85,17.94l2.13,14,1.26,16c-.78,5.1,2.37,6.54,6.55,7,10.22,5.82,18,13.89,22.65,24.77l3,13q.18,7.53.37,15,0,7,0,14v30q0,8.34,0,16.7,0,6.76,0,13.53-.53,7.83-1,15.67-2,6-4.06,12-3,4.51-6,9l-8.06,7.81a39.46,39.46,0,0,0-8.43,5l-12.44,3-15,.31h-15c-9.79-.39-9.79-.39-10.09-8.09V193.72a67.71,67.71,0,0,0-.86-16c.56-5.11-.55-10.06-1.39-15-2.08-11.56-4.85-22.9-10.41-33.37l.07-.3-.23-.2c-.34-.67-.68-1.34-1-2a24.92,24.92,0,0,0-4.62-9.12l-1.21-2a100,100,0,0,0-23-29.1q-3-2.9-6.08-5.77a112.92,112.92,0,0,0-30.69-19.59A112.14,112.14,0,0,0,239.9,50.38c-3.92,1.54-7.18-2.54-11.07-1.32-6.65-.73-13.3-1.71-20-.13l-8,.32A120.48,120.48,0,0,0,169,57.17c-3.42,1-6.81,2.07-9.71,4.26l-2.47,1.27L153.94,64a69.61,69.61,0,0,0-15.46,9.57,125.51,125.51,0,0,0-40.64,45.3,4.58,4.58,0,0,0-1.9,3.73,2.76,2.76,0,0,0-1,2.86c-4.94,6-6.28,13.45-8.78,20.45-1.45,5.61-3.53,11.07-4,16.91-.46,4-1.77,7.9-1.15,12a86.56,86.56,0,0,0-.86,19V357.51c-.66,2.32.91,5-1.1,7.1h-31Z"/><path class="cls-1" d="M338.86,222.72v14.93q0,7,0,14,0,7.95,0,15.92l0,14,0,15.92q0,7,0,14V328.5q0,6.53,0,13c-.4,5.45.56,11.14-2.83,16.07l-3.6,3.69c-7.22,4.22-14.16,3.93-20.77-1.32l-2.4-3.11c-2.79-4.78-2.53-10.09-2.66-15.34q0-6.51,0-13,0-7.47,0-14.93V281.63q0-6.53,0-13,0-8,0-15.93V221.72q0-6.51,0-13c0-6.9-.29-13.87,4.24-19.8l3.92-3.07c6-2.32,11.93-2.34,17.58,1.19,1.59,1.87,3.19,3.73,4.79,5.6,2.39,5.16,1.16,10.71,1.7,16.07Z"/><path class="cls-1" d="M94.86,207.74l.33-11.91L96.81,192c3.36-3.28,6-7.54,11.22-8.31,14.16,1.48,18.85,6.69,19,21.07,0,1,.08,2,.12,3v59.9q0,7.51,0,15t0,14.93v45c-.61,15.5-5.3,21.17-18.09,21.89-4.36-1.29-8.38-3.14-11.34-6.78l-2.52-5.22-.29-9.94v-29l0-15.92,0-15q0-8,0-15.93l0-14q0-7.45,0-14.92v-30Z"/></g></g></svg>